<?xml version="1.0" encoding="UTF-8" standalone="no"?>
<!-- Created with Inkscape (http://www.inkscape.org/) -->

<svg
   xmlns:dc="http://purl.org/dc/elements/1.1/"
   xmlns:cc="http://creativecommons.org/ns#"
   xmlns:rdf="http://www.w3.org/1999/02/22-rdf-syntax-ns#"
   xmlns:svg="http://www.w3.org/2000/svg"
   xmlns="http://www.w3.org/2000/svg"
   version="1.1"
   width="300"
   height="101.84521"
   id="svg5860">
  <defs
     id="defs5862" />
  <metadata
     id="metadata5865">
    <rdf:RDF>
      <cc:Work
         rdf:about="">
        <dc:format>image/svg+xml</dc:format>
        <dc:type
           rdf:resource="http://purl.org/dc/dcmitype/StillImage" />
        <dc:title></dc:title>
      </cc:Work>
    </rdf:RDF>
  </metadata>
  <g
     transform="translate(-157.3541,-588.16805)"
     id="layer1">
    <g
       transform="matrix(1.5944815,0,0,1.5944815,-12.507685,-687.07548)"
       id="g5803">
      <g
         transform="matrix(1.25,0,0,-1.25,287.60325,845.85378)"
         id="g472">
        <path
           d="m 0,0 0.856,0 0,-2.266 0.614,0 0,2.266 0.858,0 0,0.457 L 0,0.457 0,0 Z"
           id="path474"
           style="fill:#3c68ae;fill-opacity:1;fill-rule:nonzero;stroke:none" />
      </g>
      <g
         transform="matrix(1.25,0,0,-1.25,293.40124,845.28228)"
         id="g476">
        <path
           d="M 0,0 -0.475,-1.829 -0.95,0 l -1.043,0 0,-2.723 0.612,0 0,2.096 0.576,-2.096 0.638,0 0.578,2.096 0,-2.096 0.612,0 L 1.023,0 0,0 Z"
           id="path478"
           style="fill:#3c68ae;fill-opacity:1;fill-rule:nonzero;stroke:none" />
      </g>
      <g
         transform="matrix(1.25,0,0,-1.25,175.45489,821.10541)"
         id="g480">
        <path
           d="m 0,0 -5.917,-0.789 -2.144,-11.063 -5.27,12.153 -6.594,-2.518 c 0,0 0.182,-8.241 0.182,-8.242 0,0 2.917,-2.463 3.502,-6.125 0.364,-2.27 -0.012,-4.428 -0.897,-6.489 -0.619,-1.439 -1.557,-2.665 -2.423,-3.826 l 0.047,-2.072 7.866,0.161 -1.413,13.222 6.325,-10.433 2.976,10.594 3.039,-12.152 7.002,3.365 C 6.281,-24.214 0.556,-3.14 0,0"
           id="path482"
           style="fill:#3c68ae;fill-opacity:1;fill-rule:nonzero;stroke:none" />
      </g>
      <g
         transform="matrix(1.25,0,0,-1.25,231.61325,810.06753)"
         id="g484">
        <path
           d="M 0,0 C 0,0 0.105,-1.237 0.109,-1.287 1,-1.968 1.892,-3.347 2.318,-4.742 2.907,-6.675 2.755,-8.243 2.57,-9.228 c -0.516,-1.9 -0.729,-2.399 -1.53,-3.804 0.931,-10.353 1.523,-21.505 1.523,-21.505 l 9.144,2.181 -1.643,10.493 8.725,0.714 1.227,8.393 -10.767,-1.354 -0.099,6.676 14.321,1.792 c 0,0 1.943,8.894 1.949,8.914 C 18.298,2.405 0,0 0,0"
           id="path486"
           style="fill:#3c68ae;fill-opacity:1;fill-rule:nonzero;stroke:none" />
      </g>
      <g
         transform="matrix(1.25,0,0,-1.25,210.55437,829.45715)"
         id="g488">
        <path
           d="M 0,0 C 0.041,3.322 0.211,5.808 0.316,8.69 5.384,9.691 7.93,9.197 9.163,8.2 10.391,7.209 10.605,5.678 9.646,4.436 8.66,3.158 6.863,2.352 5.422,1.721 3.958,1.08 0.231,0.015 0,0 m 12.442,-14.208 c 1.037,1.141 2.978,3.614 4.852,5.703 -3.818,1.116 -12.278,4.177 -12.278,4.177 0,0 2.406,0.993 3.146,1.325 1.546,0.695 3.079,1.492 4.489,2.437 3.515,2.355 5.631,5.043 5.667,8.692 0.008,0.896 -0.151,1.995 -0.513,2.822 -1.339,3.05 -4.758,4.385 -7.812,4.923 -3.375,0.595 -6.84,0.456 -10.234,0.115 -2.864,-0.289 -5.753,-0.881 -5.753,-0.881 0,0 -0.098,-4.545 -0.159,-8.015 0.93,-2.871 2.132,-6.773 2.313,-10.802 0.24,-5.346 -2.921,-8.267 -2.921,-8.267 l -0.076,-2.85 c 0,0 4.429,1.206 7.153,1.927 -0.015,1.441 -0.114,4.606 -0.035,4.654 1.421,-1.058 9.942,-5.186 12.161,-5.96"
           id="path490"
           style="fill:#3c68ae;fill-opacity:1;fill-rule:nonzero;stroke:none" />
      </g>
      <g
         transform="matrix(1.25,0,0,-1.25,291.19925,829.3519)"
         id="g492">
        <path
           d="m 0,0 c -0.132,0.462 -0.324,0.912 -0.587,1.342 -2.14,3.51 -6.992,4.148 -10.725,4.28 -1.512,0.052 -3.041,0.053 -4.553,0 -1.467,-0.05 -4.025,-0.133 -3.898,2.016 0.097,1.643 1.733,2.757 3.026,3.395 0.651,0.32 1.426,0.547 2.145,0.62 1.199,0.122 2.403,-0.169 3.393,-1.08 0.444,-0.41 1.309,-1.496 1.287,-1.516 0,0 3.222,2.195 5.734,3.965 -1.381,2.136 -3.063,4.233 -4.675,4.942 -2.786,1.222 -6.054,0.829 -8.364,-0.197 -2.294,-1.017 -4.814,-3.196 -4.815,-3.204 -0.651,-2.927 -1.255,-5.802 -1.255,-5.802 0,0 -1.921,-0.267 -3.504,-0.483 -0.424,-1.058 -0.558,-2.25 -0.454,-3.384 0.214,-2.346 1.801,-4.144 4.115,-4.62 0.82,-0.169 1.657,-0.197 2.488,-0.266 1.968,-0.165 5.294,-0.018 8.36,-0.17 2.084,-0.101 3.891,-0.532 4.492,-1.826 1.036,-2.232 -2.044,-4.511 -3.584,-5.271 -0.744,-0.368 -1.452,-0.725 -2.274,-0.891 -0.782,-0.159 -1.953,-0.236 -2.469,0.525 -0.327,0.482 -0.179,1.324 -0.094,1.878 0.06,0.402 0.199,0.96 0.199,0.96 0,0 -6.16,0.151 -7.618,0.243 -1.381,-3.56 -0.498,-6.632 1.326,-7.988 2.941,-2.175 7.493,-1.948 10.844,-1.083 2.053,0.531 4.056,1.42 5.805,2.623 C -2.246,-8.647 1.27,-4.456 0,0"
           id="path494"
           style="fill:#3c68ae;fill-opacity:1;fill-rule:nonzero;stroke:none" />
      </g>
      <g
         transform="matrix(1.25,0,0,-1.25,153.5665,841.92602)"
         id="g496">
        <path
           d="m 0,0 c -0.635,3.509 -3.251,6.084 -6.764,7.456 -5.34,2.085 -11.605,2.497 -16.289,3.459 -3.018,0.621 -3.539,2.268 -2.031,4.178 1.442,1.827 5.703,3.422 8.067,3.318 3.069,-0.136 4.425,-3.083 4.425,-3.083 0,0 3.97,2.302 8.352,4.532 -0.992,1.901 -3.145,4.801 -6.052,6.167 -3.404,1.6 -7.311,1.982 -11.481,1.027 -3.304,-0.757 -9.933,-3.161 -14.065,-9.561 -1.59,-2.505 -2.551,-6.964 -1.015,-9.659 1.374,-2.411 4.2,-3.356 6.762,-3.843 4.284,-0.814 7.889,-1.268 12.697,-2.109 3.152,-0.552 5.564,-1.295 6.176,-3.235 1.267,-4.012 -4.218,-6.382 -7.515,-7.092 -1.992,-0.427 -5.546,0.087 -5.234,2.691 0.081,0.681 0.288,1.352 0.617,1.953 0,0 -8.522,1.319 -10.971,1.793 -0.683,-0.914 -1.301,-3.187 -1.333,-4.827 -0.047,-2.389 0.387,-4.895 2.069,-6.71 3.3,-3.562 8.953,-4.098 13.5,-3.752 3.538,0.27 7.073,1.209 10.234,2.83 4.318,2.214 8.688,5.784 9.769,10.738 C 0.201,-2.429 0.213,-1.178 0,0"
           id="path498"
           style="fill:#3c68ae;fill-opacity:1;fill-rule:nonzero;stroke:none" />
      </g>
      <g
         transform="matrix(1.25,0,0,-1.25,202.97701,840.53427)"
         id="g500">
        <path
           d="m 0,0 c 0.347,0.701 0.602,1.456 0.75,2.255 0.517,2.784 -0.029,5.771 -0.694,8.483 -0.551,2.246 -2.272,7.26 -2.272,7.26 L -7.44,15.594 c 0,0 0.762,-2.235 1.132,-3.308 0.522,-1.516 0.957,-2.963 1.284,-4.532 0.318,-1.532 0.644,-3.338 0.062,-4.845 -0.806,-2.084 -3.49,-3.679 -5.713,-3.403 -2.574,0.32 -3.391,2.971 -3.475,5.2 -0.026,0.702 -0.005,1.407 0.042,2.109 0.187,2.817 0.937,5.364 1.665,8.141 0.185,0.708 1.178,4.088 1.178,4.088 0,0 -3.815,-0.119 -6.163,-0.083 -0.532,-1.81 -1.928,-9.413 -1.928,-9.413 l 4.178,-15.452 c 1.242,-0.484 3.322,-0.537 4.802,-0.411 1.707,0.146 3.435,0.625 5.016,1.368 2.203,1.034 4.264,2.74 5.36,4.947"
           id="path502"
           style="fill:#3c68ae;fill-opacity:1;fill-rule:nonzero;stroke:none" />
      </g>
      <g
         transform="matrix(1.25,0,0,-1.25,157.80487,816.72615)"
         id="g504">
        <path
           d="M 0,0 C -0.196,0.028 -0.542,0.027 -0.769,0.347 -0.925,0.609 -0.883,0.845 -0.913,0.972 -0.964,1.27 -1.036,1.566 -1.072,1.898 -1.097,2.136 -1.126,2.385 -1.134,2.641 -1.157,3.346 -1.25,4.063 -1.272,4.806 -1.28,5.104 -1.282,5.402 -1.285,5.697 -1.327,5.704 -2.205,5.671 -2.266,5.678 c -0.212,0.024 -0.483,0.034 -0.729,0.143 -0.162,0.066 -0.346,0.24 -0.352,0.475 0,0.002 -0.002,0.002 -0.003,0.028 0.059,0.515 0.511,0.678 0.829,0.726 l 0,-0.002 c 0.004,0 0.008,0.002 0.013,0.003 0.063,-0.002 1.062,0.014 1.214,-0.005 -0.01,0.368 -0.026,0.975 -0.031,1.279 -0.011,0.725 -0.144,1.515 -0.298,2.244 -0.048,0.229 -0.096,0.448 -0.168,0.649 -0.093,0.269 -0.232,0.591 -0.257,0.938 -10e-4,0.004 -10e-4,0.019 -0.002,0.04 -0.006,0.234 0.165,0.412 0.315,0.478 0.153,0.075 0.312,0.098 0.458,0.104 0.011,0.003 0.027,0.003 0.045,0.003 0.095,0 0.178,-0.005 0.254,-0.023 0.624,-0.171 0.692,-0.821 0.79,-1.122 C 0.164,10.355 0.33,8.989 0.344,7.66 0.345,7.559 0.345,7.459 0.345,7.355 c 0,-0.009 0.001,-0.101 0.002,-0.208 0.254,0.04 0.515,0.113 0.783,0.188 0.218,0.05 0.5,0.269 0.902,0.283 l 0.01,0 c 0.003,10e-4 0.006,0 0.01,0 0.003,0 0.007,10e-4 0.012,0 C 2.104,7.619 2.149,7.62 2.198,7.622 2.391,7.621 2.649,7.62 2.886,7.448 3.066,7.309 3.246,7.099 3.259,6.794 3.26,6.693 3.235,6.588 3.179,6.493 2.978,6.183 2.649,6.12 2.452,6.057 2.264,6.007 2.088,5.988 1.929,5.961 1.779,5.938 0.843,5.758 0.365,5.684 0.386,5.202 0.432,4.113 0.44,3.695 0.448,3.23 0.628,1.782 0.662,1.584 0.681,1.397 0.892,1.073 0.907,0.683 0.908,0.578 0.89,0.468 0.842,0.358 0.678,0.035 0.355,0 0.149,-0.005 0.095,-0.005 0.046,-0.002 0,0"
           id="path506"
           style="fill:#3c68ae;fill-opacity:1;fill-rule:nonzero;stroke:none" />
      </g>
      <g
         transform="matrix(1.25,0,0,-1.25,163.94487,816.01228)"
         id="g508">
        <path
           d="m 0,0 c -0.337,0.185 -0.364,0.505 -0.44,0.8 -0.055,0.297 -0.075,0.599 -0.085,0.683 -0.038,0.341 -0.287,2.516 -0.309,2.805 -0.015,0.203 -0.274,2.556 -0.335,2.915 -0.086,0.509 -0.345,2.222 -0.408,2.534 -0.068,0.34 -0.411,1.835 -0.52,2.297 -0.014,0.055 -0.021,0.11 -0.022,0.165 0.007,0.415 0.308,0.674 0.601,0.741 0.105,0.023 0.214,0.04 0.326,0.041 0.002,0 0.018,10e-4 0.045,-10e-4 0.211,-0.003 0.442,-0.08 0.62,-0.261 0.119,-0.137 0.136,-0.25 0.191,-0.419 0.044,-0.165 0.088,-0.362 0.13,-0.569 0.083,-0.411 0.159,-0.86 0.212,-1.079 0.072,-0.304 0.331,-1.797 0.47,-2.604 0.06,0.061 0.12,0.12 0.183,0.178 0.365,0.337 0.88,0.639 1.339,0.818 C 2.325,9.168 2.706,9.237 3.084,9.243 3.371,9.246 3.658,9.21 3.921,9.125 4.686,8.881 5.328,8.386 5.65,7.647 6.114,6.586 6.205,5.385 6.262,4.299 6.267,4.185 6.269,4.069 6.271,3.955 6.274,3.622 6.263,3.297 6.267,2.979 6.268,2.838 6.273,2.698 6.282,2.559 6.301,2.274 6.344,1.995 6.426,1.731 6.467,1.575 6.627,1.336 6.638,1.015 6.639,0.935 6.628,0.851 6.597,0.766 6.451,0.353 6.038,0.263 5.764,0.269 5.708,0.269 5.656,0.27 5.607,0.272 5.365,0.287 5.051,0.341 4.843,0.62 4.588,1.005 4.697,1.411 4.656,1.63 4.55,2.451 4.523,3.26 4.496,4.068 4.468,4.891 4.409,5.703 4.165,6.456 4.015,6.98 3.661,7.753 3.268,7.747 3.218,7.754 3.172,7.755 3.126,7.755 2.523,7.755 1.97,7.272 1.528,6.825 1.174,6.481 0.832,5.975 0.842,5.558 0.842,5.549 0.843,5.542 0.843,5.537 0.848,4.982 1,4.058 1.092,3.405 1.17,2.826 1.425,1.142 1.462,0.772 L 1.477,0.737 1.462,0.658 C 1.41,0.416 1.263,0.216 1.07,0.081 0.885,-0.041 0.674,-0.075 0.468,-0.08 0.303,-0.081 0.144,-0.06 0,0"
           id="path510"
           style="fill:#3c68ae;fill-opacity:1;fill-rule:nonzero;stroke:none" />
      </g>
      <g
         transform="matrix(1.25,0,0,-1.25,174.65312,809.4759)"
         id="g512">
        <path
           d="M 0,0 C 0,0.031 0.002,0.069 0.007,0.111 0.026,0.288 0.1,0.49 0.176,0.635 0.355,0.985 0.657,1.291 0.974,1.591 1.193,1.785 1.456,1.971 1.719,2.159 2.044,2.392 2.361,2.558 2.701,2.56 2.72,2.56 2.739,2.561 2.761,2.559 3.13,2.544 3.457,2.319 3.679,1.987 3.746,1.884 3.769,1.798 3.771,1.714 3.827,1.3 2.928,0.673 2.426,0.405 2.194,0.269 1.893,0.163 1.601,0.05 1.299,-0.07 0.725,-0.293 0.353,-0.292 0.062,-0.257 0.032,-0.28 0,0 M 5.841,-2.043 C 5.745,-1.947 5.619,-1.923 5.526,-1.925 5.087,-1.951 4.613,-2.323 4.465,-2.401 4.106,-2.619 3.777,-2.845 3.431,-2.972 3.16,-3.071 2.826,-3.135 2.53,-3.151 2.498,-3.153 2.464,-3.154 2.431,-3.155 1.652,-3.165 0.894,-2.762 0.449,-2.118 0.388,-2.033 0.306,-1.88 0.235,-1.74 c 0.463,0.079 1.165,0.246 1.41,0.331 1.078,0.39 2.168,0.914 3.029,1.744 C 5.022,0.675 5.373,1.13 5.371,1.712 5.37,1.772 5.365,1.833 5.356,1.894 5.262,2.503 4.833,2.933 4.442,3.255 4.21,3.442 3.948,3.628 3.65,3.754 3.361,3.878 3.067,3.929 2.786,3.924 2.729,3.924 2.674,3.921 2.619,3.917 1.582,3.827 0.614,3.193 -0.135,2.634 -0.528,2.337 -0.955,1.855 -1.185,1.392 -1.48,0.791 -1.512,0.395 -1.562,-0.235 c -0.012,-0.14 -0.017,-0.288 -0.016,-0.436 0.004,-0.343 0.05,-0.695 0.179,-1.026 0.132,-0.34 0.26,-0.723 0.486,-1.072 0.231,-0.355 0.582,-0.689 1.048,-1.013 0.414,-0.288 0.875,-0.529 1.371,-0.675 0.273,-0.08 0.549,-0.114 0.822,-0.111 0.954,0.014 1.865,0.452 2.601,0.921 0.35,0.224 0.744,0.486 0.965,0.948 0.042,0.098 0.068,0.203 0.068,0.332 -0.004,0.09 -0.007,0.206 -0.121,0.324"
           id="path514"
           style="fill:#3c68ae;fill-opacity:1;fill-rule:nonzero;stroke:none" />
      </g>
    </g>
  </g>
</svg>
